<?xml version="1.0" encoding="UTF-8"?>
<!DOCTYPE svg PUBLIC "-//W3C//DTD SVG 1.1//EN" "http://www.w3.org/Graphics/SVG/1.1/DTD/svg11.dtd">
<!-- Creator: CorelDRAW -->
<svg xmlns="http://www.w3.org/2000/svg" xml:space="preserve" width="30mm" height="30mm" version="1.1" style="shape-rendering:geometricPrecision; text-rendering:geometricPrecision; image-rendering:optimizeQuality; fill-rule:evenodd; clip-rule:evenodd"
viewBox="0 0 181.13 181.13"
 xmlns:xlink="http://www.w3.org/1999/xlink"
 xmlns:xodm="http://www.corel.com/coreldraw/odm/2003">
 <defs>
  <style type="text/css">
   <![CDATA[
    .fil1 {fill:#FEFEFE}
    .fil3 {fill:black;fill-opacity:0.231373}
    .fil2 {fill:url(#id0)}
    .fil0 {fill:url(#id1)}
   ]]>
  </style>
  <linearGradient id="id0" gradientUnits="objectBoundingBox" x1="24.4005%" y1="12.1084%" x2="99.9902%" y2="93.6057%">
   <stop offset="0" style="stop-opacity:1; stop-color:#C7C7C7"/>
   <stop offset="1" style="stop-opacity:1; stop-color:white"/>
  </linearGradient>
  <linearGradient id="id1" gradientUnits="userSpaceOnUse" x1="17.38" y1="19.22" x2="162.94" y2="164.77">
   <stop offset="0" style="stop-opacity:1; stop-color:#95EC1B"/>
   <stop offset="0.239216" style="stop-opacity:1; stop-color:#61C41A"/>
   <stop offset="1" style="stop-opacity:1; stop-color:#2C9B19"/>
  </linearGradient>
 </defs>
 <g id="Слой_x0020_1">
  <metadata id="CorelCorpID_0Corel-Layer"/>
  <g id="_2379942778064">
   <path class="fil0" d="M181.13 66.12l0 -66.12 -29.35 0 -32.85 0 -45.88 0 -0.14 0 -16.04 0c-3.42,0.17 -6.88,0.56 -10.82,1.42 -10.02,2.18 -17.66,6.55 -25.35,12.71l-4.91 4.8c-1.23,1.55 -2.36,2.54 -4.32,5.13 -8.92,11.83 -11.05,23.11 -11.47,35.59l0 19.84 0 0.11 0 0.18 0 43.77c0.04,1.55 0.09,2.64 0.15,3.08 0.37,2.56 0.4,4.61 0.95,6.93 0.21,0.89 1.06,5.56 1.79,6.19 0.04,2.17 2.85,7.68 3.76,9.52 0.87,1.76 3.93,7.05 5.16,8 0.21,0.73 2.15,2.99 2.69,3.57 0.63,0.67 0.96,0.91 1.51,1.64l4.83 4.62c6.1,4.77 11.96,8.83 20.25,11.25 4.32,1.26 5.71,1.62 10.3,2.29 1.79,0.26 5.58,0.4 10.13,0.48l27.33 0 33.08 0c2.22,-0.05 4.09,-0.13 5.39,-0.24 7.25,-0.61 14.14,-2.51 20.36,-5.62 3.6,-1.8 4.84,-2.56 8.12,-4.74 2.68,-1.78 4.69,-3.73 7.11,-5.75l6.15 -6.97c9.57,-12.81 12.03,-24.03 12.04,-39.62l0 -52.07z"/>
   <path class="fil1" d="M60.03 84.19c0.45,0.95 34.75,35.12 36.49,36.89 3.08,3.15 6.09,6.04 9.23,9.15l6.98 6.93c2.89,2.6 4.99,3.91 9.24,4.43 9.64,1.18 6.98,2.82 16.62,-6.95 0.55,-0.55 0.52,-0.63 1.11,-0.88l1.32 -1.66c-1.09,-1.24 -6.34,-1.09 -7.91,-1.47 -4.35,-1.06 -9.22,-6.29 -12.66,-9.61 -0.77,-0.74 -1.37,-1.57 -2.14,-2.33l-13.63 -13.41c-1.18,-1.19 -3.67,-3.35 -4.44,-4.63 -1.58,-1.23 -2.3,-2.39 -3.61,-3.59l-10.7 -10.57c-4.09,-4 -10.66,-10.94 -14.28,-14.21l-10.41 10.47c-0.81,0.8 -1.06,0.8 -1.21,1.42z"/>
   <path class="fil2" d="M100.25 100.68c0.78,1.28 3.27,3.44 4.44,4.63l13.63 13.41c0.76,0.75 1.37,1.58 2.14,2.33 3.44,3.32 8.31,8.55 12.66,9.61 1.57,0.38 6.82,0.22 7.91,1.47 3.29,-2.14 1.96,-6.15 1.36,-10.38 -1.07,-7.58 -3.18,-7.4 -4.39,-9.63l-13.41 -13.58c-1.78,-1.8 -12.38,-12.6 -13.43,-13.25 -1.24,-2.28 -18.7,-18.11 -19.42,-19.67 -1.39,-0.72 -3.79,-3.5 -5.07,-4.76 -1.24,-1.22 -3.57,-3.88 -4.89,-4.62 -0.28,1.03 -16.41,16.71 -18.52,18.84 -1.1,1.11 -2.03,2.06 -3.14,3.16l-2.35 2.39c-0.84,0.64 -0.06,0.56 -1.08,0.23 0.74,1.18 2.2,2.75 3.35,3.34 0.15,-0.61 0.41,-0.62 1.21,-1.42l10.41 -10.47c3.62,3.28 10.19,10.21 14.28,14.21l10.7 10.57c1.31,1.19 2.02,2.36 3.61,3.59z"/>
   <path class="fil1" d="M35.31 55.8c0.14,2.08 -0.43,3.13 1.06,4.69l14.29 14.59c1.31,1.33 4.95,4.65 5.67,5.96l0.35 -0.19c1.02,0.33 0.24,0.4 1.08,-0.23l2.35 -2.39c1.12,-1.1 2.04,-2.04 3.14,-3.16 2.11,-2.12 18.24,-17.81 18.52,-18.84l-3.36 -3.29 -12.79 12.88c-0.9,-0.51 -9.74,-9.35 -10.56,-10.48 -1.44,-0.99 -4.01,-3.88 -5.39,-5.27 -1.8,-1.81 -3.54,-2.73 -4.31,-6.26 -1.41,0.98 -4.14,4.06 -5.53,5.49 -0.96,0.99 -1.74,1.74 -2.57,2.95 -0.43,0.63 -1.74,3.32 -1.97,3.55z"/>
   <path class="fil3" d="M49.47 87.93c0.47,0.24 0.59,0.28 1.03,0.53l11.39 11.75c1.08,0.59 11.36,11.39 13.15,13.21l26.27 26.23c2.18,2.16 4.28,4.47 6.54,6.59 1.95,1.83 4.45,4.39 7.99,5.26 4.04,0.53 10.32,2.08 12.53,0.26l3.69 -3.66c0.69,-0.67 1.16,-1.15 1.85,-1.83l1.22 -2.67c1.12,-1.17 4.99,-4.93 5.35,-5.65 -0.21,-1.11 -0.19,-3.35 -0.78,-4.16 -0.59,0.25 -0.57,0.32 -1.11,0.88 -9.64,9.76 -6.98,8.12 -16.62,6.95 -4.25,-0.52 -6.35,-1.83 -9.24,-4.43l-6.98 -6.93c-3.14,-3.11 -6.15,-6 -9.23,-9.15 -1.74,-1.78 -36.04,-35.94 -36.49,-36.89 -1.14,-0.59 -2.61,-2.16 -3.35,-3.34l-0.35 0.19c-0.72,-1.32 -4.36,-4.64 -5.67,-5.96l-14.29 -14.59c-1.49,-1.56 -0.92,-2.62 -1.06,-4.69l-0.11 -0.41c-0.71,1.33 -2.37,2.47 -3.48,3.88 -5.33,6.8 -0.99,9.41 3.43,13.99l14.32 14.66zm92.59 58.49l-2.13 -0.17c-1.55,0.09 -0.69,-0.18 -1.96,1.18l-4.72 4.73c-1.09,0.94 -1.59,1.68 -1.25,3.34 1.16,0.6 3.32,0.76 4.8,0.99 3.02,0.46 7.09,1.51 6.1,-4.77 -0.29,-1.8 -0.59,-3.49 -0.83,-5.3z"/>
   <path class="fil2" d="M45.38 43.81c0.77,3.52 2.51,4.44 4.31,6.26 1.38,1.39 3.94,4.28 5.39,5.27 0.82,1.13 9.67,9.97 10.56,10.48l12.79 -12.88c-0.98,-1.84 -3.19,-2.8 -4.19,-4.52 -0.85,-0.48 -5.18,-5.15 -6.77,-6.7 -0.47,-0.46 -0.73,-0.72 -1.2,-1.17l-1.09 -0.84c-0.41,-0.8 -0.47,-0.76 -1.14,-1.39l-3.27 -3.02c-5.15,-3.64 -14.61,7.19 -15.39,8.5z"/>
   <path class="fil1" d="M140.5 137.94c-0.36,0.72 -4.23,4.48 -5.35,5.65l-0.01 1.62c1.32,0.53 3.58,0.4 4.8,1.04l2.13 0.17c2.5,0.44 4.01,-1.32 3.69,-3.67 -0.14,-1 -0.64,-6.13 -1.44,-6.76 -1.52,-0.97 -2.9,1.38 -3.82,1.95z"/>
  </g>
 </g>
</svg>
