<?xml version="1.0" encoding="UTF-8"?>
<!DOCTYPE svg PUBLIC "-//W3C//DTD SVG 1.1//EN" "http://www.w3.org/Graphics/SVG/1.1/DTD/svg11.dtd">
<!-- Creator: CorelDRAW -->
<svg xmlns="http://www.w3.org/2000/svg" xml:space="preserve" width="30.0001mm" height="29.2706mm" version="1.1" style="shape-rendering:geometricPrecision; text-rendering:geometricPrecision; image-rendering:optimizeQuality; fill-rule:evenodd; clip-rule:evenodd"
viewBox="0 0 278.85 272.07"
 xmlns:xlink="http://www.w3.org/1999/xlink"
 xmlns:xodm="http://www.corel.com/coreldraw/odm/2003">
 <defs>
  <style type="text/css">
   <![CDATA[
    .fil0 {fill:#330000}
    .fil1 {fill:#FE9900}
   ]]>
  </style>
 </defs>
 <g id="Слой_x0020_1">
  <metadata id="CorelCorpID_0Corel-Layer"/>
  <g id="_2379953110544">
   <path class="fil0" d="M184.22 102.04c0,-2.27 0.05,-2.7 2.4,-2.7l21.26 0c1.99,0 2.38,0.38 2.38,2.38l-0.38 90.3c-4.53,0.44 -17.57,0.2 -22.94,0.2 -2.35,0 -2.72,-0.46 -2.72,-2.86l0 -87.31zm-124.21 90.07c-2.41,0 -2.8,-0.35 -2.01,-2.82l4.02 -11.46c10.38,-30.65 21.68,-61.66 32.05,-92.31 0.82,-2.42 1.99,-5.3 2.42,-7.88 0.99,-5.92 -0.51,-7.9 2.41,-7.9l28.11 0c2.81,0 2.27,0.07 3.09,2.47l31.46 88.71c1.79,5.14 3.68,10.27 5.48,15.46 5.73,16.49 6.71,15.77 1.21,15.73l-12.57 -0c-12.04,0 -10.31,0.91 -12.08,-4.21l-8.42 -24.7 -43.31 0.01c-1.3,5.53 -5.4,16.59 -7.44,23.19 -1.41,4.56 -1.19,5.71 -4.13,5.71l-20.3 0zm135.25 -131.47c20.37,-3.08 22.18,26.61 4.58,28.88 -20.33,2.62 -22.95,-26.1 -4.58,-28.88zm83.3 166.41c0.5,-5.27 0.2,-11.65 0.2,-17.07l0 -154.64c0,-11.46 -0.73,-19.86 -5.67,-28.81 -7.23,-13.11 -21.2,-25.75 -42.33,-26.27 -22.7,-0.56 -46.16,-0.01 -68.95,-0.01 -34.37,0 -68.73,0 -103.09,0 -12.64,0 -19.24,-0.25 -29.97,4.51 -13.7,6.07 -26.61,20.68 -28.45,40.12 -0.51,5.4 -0.22,11.73 -0.22,17.23l0 154.64c0,11.39 0.77,19.92 5.67,28.81 7.23,13.1 21.2,25.75 42.33,26.27 22.7,0.56 46.16,0.01 68.95,0.01l103.09 0c12.63,0 19.24,0.25 29.97,-4.51 13.78,-6.11 26.61,-20.69 28.47,-40.28z"/>
   <path class="fil1" d="M109.94 103.65c0.73,-2.4 2.47,-10.73 3.22,-12.17 0,0 14.77,47.81 14.77,48.13l-29.12 -0.03 11.12 -35.93zm-49.94 88.46l20.3 0c2.95,0 2.73,-1.15 4.13,-5.71 2.04,-6.6 6.14,-17.66 7.44,-23.19l43.31 -0.01 8.42 24.7c1.77,5.13 0.04,4.21 12.08,4.21l12.57 0c5.5,0.04 4.52,0.75 -1.21,-15.73 -1.8,-5.19 -3.7,-10.32 -5.48,-15.46l-31.46 -88.71c-0.82,-2.4 -0.28,-2.47 -3.09,-2.47l-28.11 0c-2.92,0 -1.43,1.98 -2.41,7.9 -0.43,2.58 -1.61,5.46 -2.42,7.88 -10.37,30.65 -21.67,61.65 -32.05,92.31l-4.02 11.46c-0.79,2.47 -0.4,2.82 2.01,2.82z"/>
   <path class="fil1" d="M184.22 102.04l0 87.31c0,2.4 0.37,2.86 2.72,2.86 5.37,0 18.41,0.25 22.94,-0.2l0.38 -90.3c0,-2 -0.39,-2.38 -2.38,-2.38l-21.26 0c-2.35,0 -2.4,0.43 -2.4,2.7z"/>
   <path class="fil0" d="M98.82 139.58l29.12 0.03c-0.01,-0.32 -14.77,-48.13 -14.77,-48.13 -0.75,1.43 -2.49,9.77 -3.22,12.17l-11.12 35.93z"/>
   <path class="fil1" d="M195.26 60.64c-18.37,2.78 -15.76,31.5 4.58,28.88 17.61,-2.27 15.8,-31.96 -4.58,-28.88z"/>
  </g>
 </g>
</svg>
