<?xml version="1.0" encoding="UTF-8"?>
<!DOCTYPE svg PUBLIC "-//W3C//DTD SVG 1.1//EN" "http://www.w3.org/Graphics/SVG/1.1/DTD/svg11.dtd">
<!-- Creator: CorelDRAW -->
<svg xmlns="http://www.w3.org/2000/svg" xml:space="preserve" width="25.7875mm" height="20.2477mm" version="1.1" style="shape-rendering:geometricPrecision; text-rendering:geometricPrecision; image-rendering:optimizeQuality; fill-rule:evenodd; clip-rule:evenodd"
viewBox="0 0 140.81 110.56"
 xmlns:xlink="http://www.w3.org/1999/xlink"
 xmlns:xodm="http://www.corel.com/coreldraw/odm/2003">
 <defs>
  <style type="text/css">
   <![CDATA[
    .fil0 {fill:#01D564}
   ]]>
  </style>
 </defs>
 <g id="Слой_x0020_1">
  <metadata id="CorelCorpID_0Corel-Layer"/>
  <path class="fil0" d="M7.67 84.71c7.8,0.52 16.39,0.45 24.23,0.33 28.77,-0.44 24.27,-12.52 31.03,-42.57 3,-13.35 9.44,-24.33 21.15,-27.93 6.84,-2.11 15.15,-1.83 22.61,-1.68 8.09,0.16 16.21,0.17 24.32,0.21 -1.57,-4.07 -10.96,-8.96 -16.7,-10.62 -13.79,-3.98 -66.08,-3.02 -76.08,2.27 -10.81,5.71 -15.34,25.09 -18.52,36.72 -0.85,3.09 -11.88,41.36 -12.02,43.28zm-7.67 25.82c18.18,-0.1 36.36,0 54.54,0.03 17.54,0.03 32.79,0.04 46.19,-8.01 21.91,-13.16 42.47,-41.62 39.86,-68.82 -0.19,-1.95 -0.33,-7.32 -2.4,-7.87 -0.72,-0.19 -2.55,-0.1 -3.38,-0.09 -12.95,0.18 -26,-1.49 -31.51,9.39 -7.36,14.54 -3.34,45.92 -22.99,58.3 -7.25,4.57 -13.59,4.11 -23.02,4.25 -17.88,0.28 -35.7,-0.34 -53.48,-0.22l-3.8 13.03z"/>
 </g>
</svg>
