<?xml version="1.0" encoding="UTF-8"?>
<!DOCTYPE svg PUBLIC "-//W3C//DTD SVG 1.1//EN" "http://www.w3.org/Graphics/SVG/1.1/DTD/svg11.dtd">
<!-- Creator: CorelDRAW -->
<svg xmlns="http://www.w3.org/2000/svg" xml:space="preserve" width="178.352mm" height="35.2351mm" version="1.1" style="shape-rendering:geometricPrecision; text-rendering:geometricPrecision; image-rendering:optimizeQuality; fill-rule:evenodd; clip-rule:evenodd"
viewBox="0 0 1357.92 268.27"
 xmlns:xlink="http://www.w3.org/1999/xlink"
 xmlns:xodm="http://www.corel.com/coreldraw/odm/2003">
 <defs>
  <style type="text/css">
   <![CDATA[
    .fil5 {fill:#A57374}
    .fil4 {fill:#BA9394}
    .fil3 {fill:#CDB1B2}
    .fil1 {fill:#E4D2D3}
    .fil2 {fill:#F2ECEC}
    .fil0 {fill:#FEFDFD}
   ]]>
  </style>
 </defs>
 <g id="Слой_x0020_1">
  <metadata id="CorelCorpID_0Corel-Layer"/>
  <path class="fil0" d="M751.53 170.15l37.57 0.2 0.04 -75.94c13.31,13.02 21.75,36.03 34.91,49.41 12.16,-13.06 23.52,-39.61 35.12,-49.86l0.48 75.53 37.92 1.03 -0 -137.42c-43.73,0 -38.02,-3.2 -47.46,11.71 -3.71,5.87 -4.68,7.77 -8.16,13.22 -7.03,11.04 -9.79,19.36 -17.91,26.36 -11.42,-12.65 -21.7,-36.04 -33.11,-50.88l-38.43 -0.11 -0.99 136.75z"/>
  <path class="fil0" d="M921.93 169.78l35.15 0.39c4.41,-14.54 1.76,-58.53 1.62,-76.35 6.88,4.97 28.73,40.29 34.86,50.35 10.91,-11.6 26.95,-43.28 36.49,-50.05l-0.02 75.02 36.39 0.95 0.65 -136.16 -38.57 -0.53c-12.38,14.33 -20.73,36.72 -34.71,51.78 -9.58,-14.71 -21.56,-38.74 -32.75,-51.4l-38.64 -0.21 -0.46 136.22z"/>
  <path class="fil0" d="M1155.91 79.62c8.12,8.47 9.51,17.91 16.17,35.62l-29.42 0.61 13.25 -36.23zm-43.78 17.34l-14.83 30.11c-0.36,8.34 -11.62,34.67 -16.7,42.93l43.03 -0.45c-0.04,-11 3.15,-13.02 7.53,-23.53l52 -0.27c16.79,27.83 -4.2,24.67 50.43,24.69l-57.51 -138.26c-44.81,-0.21 -33.26,-6.14 -49.57,31.05 -4.64,10.56 -9.73,24.46 -14.39,33.74z"/>
  <path class="fil0" d="M508.09 116.26c2.44,-10.77 8.7,-29.08 16.26,-36.32l13.39 36.28 -29.65 0.05zm-61.26 54.01c41.04,0.08 37.27,7.11 49.46,-24.84l52.84 0.24c13.93,29.5 1.62,24.72 49.69,24.72l-57.26 -138.01 -37.47 -0.37 -57.27 138.26z"/>
  <path class="fil0" d="M1285.62 66.48c13.59,-5.91 52.37,-2.33 70.4,-1.77l-0.02 -29.92 -108.11 0.41 -0.19 135.3 38.35 -0.2 0.05 -48.87 64.67 -0.06 -0.35 -31.65 -64.7 0.01 -0.1 -23.25z"/>
  <path class="fil0" d="M37.08 219.92c-29.64,-43.18 -36.93,-64.11 -26.18,-127.19 125.96,0.43 123.82,-12.29 120.35,127.45l-94.16 -0.27zm99.56 5.48l0.24 -82.25c7.29,21.93 21.42,35.69 47.82,36.4 26.66,0.71 58.82,0.88 85.34,-0.41 5.42,-17.85 7.36,-25.01 7.87,-44.8l-140.56 -1.04c-5.71,-25.31 -15.58,-42.75 -42.35,-45.85 -21.66,-2.51 -62.7,-0.55 -86,-0.14 -11.49,20.73 -10.45,53.92 -5.29,77.6 7.05,32.37 21.22,41.1 30.41,60.34l102.53 0.16z"/>
  <polygon class="fil0" points="337.87,65.83 379.62,65.79 379.35,169.83 415.99,170 417.17,67.65 457.52,65.48 457.98,33.74 338.73,33.38 "/>
  <path class="fil0" d="M641.41 127.63c-4.98,3.26 -22.14,21.01 -23.48,22.99 17.15,25.37 70.91,31.07 89.1,3.59 13.65,-20.62 12.36,-92.16 9.12,-121.16l-36.75 0.11c-5.02,45.35 8.95,99.77 -12.33,105.05 -13.31,3.3 -18.16,-6.24 -25.67,-10.59z"/>
  <path class="fil0" d="M269.53 87.17c-5.35,-20.06 -15.06,-31.72 -25.64,-44.82l-107.04 -1.13c6.5,61.19 65.9,45.95 132.68,45.95z"/>
  <path class="fil0" d="M136.64 225.4c1.33,15.27 4.5,22.61 13.42,32.2 10.88,11.71 16.99,13.21 33.8,7.28 22.52,-7.94 50.73,-25.23 57.87,-39.35l-105.09 -0.13z"/>
  <path class="fil0" d="M36.91 41.07l99.25 0.12c-1.42,-26.34 -17.69,-49.16 -45.28,-38.51 -20.74,8 -46.27,24.88 -53.97,38.4z"/>
  <path class="fil1" d="M67.87 144.13c-11.23,0.83 1.9,1.94 -2.91,-1.86 0.8,-0.74 -3.17,-5.72 8.68,0.01 -1.94,0.97 -1.59,1.54 -5.78,1.85zm-3.6 30.66c0.21,-0.71 0.25,-1.9 0.32,-2.2l1.84 -4.88c4.32,1.25 4.79,2.17 6.49,3.01 14.18,6.99 8.32,1.42 14.46,2.7 5.55,1.16 10.42,7.79 18.4,0.56l-18.13 -6.53c-7.21,-1.74 -5.73,1.62 -15.23,-2.98 -1.78,-9.81 -2.99,-7.18 0.67,-15.59 4.07,-9.35 4.27,6.58 3.45,-9.12 -7.23,-3.91 -7.83,-3.44 -15.13,-0.14 0.87,18.06 8.2,-6.1 5.5,25.1 -7.55,2.77 -19.56,2.45 -34.53,9.35 16.5,12.53 -1.54,-3.43 31.88,0.71z"/>
  <path class="fil1" d="M64.27 174.79c-1,7.44 2.83,1.92 -3.03,6.74l-11.21 -7.46c-0.61,1.35 -2.06,4.88 -2.3,5.29l-2.34 3.13c-4.01,6.14 -2.18,0.39 -4.44,8.22 10.15,-0.87 20.22,-3.9 31.06,-3.56 11.22,0.35 18.16,5.16 25.64,0.81 -10.07,-12.62 -4.43,4.82 -8.7,-14.08l-5.61 4.08c-5.16,3.46 2.25,-0.5 -5.98,3.45 -4.52,-4.49 -1.94,-6.73 -13.08,-6.6z"/>
  <path class="fil2" d="M1307.52 220.81c13.05,-0.33 14.66,7.56 10.08,17.3l-12.04 0.6c-3.43,-7.9 -2.88,-11.8 1.96,-17.9zm-8.93 -1.89c-2.65,13.4 -4.61,25.07 11.63,25.77 18.04,0.79 17.09,-11.4 14.34,-25.77 -7.35,-3.06 -18.75,-5.28 -25.97,-0.01z"/>
  <path class="fil2" d="M1145.56 219.54l13.21 4.3c2.61,13.63 -0.6,14.44 -13.42,15.22l0.21 -19.51zm-5.94 23.68l17.78 1.19 7.8 -7.27c1.57,-20.91 -3.84,-23.98 -25.25,-20.83l-0.33 26.91z"/>
  <path class="fil3" d="M1285.62 66.48l71.86 0.08 0.44 -33.13 -104.03 -0.6c-10.1,1.83 -1.81,0.11 -6,2.37l108.11 -0.41 0.02 29.92c-18.02,-0.57 -56.8,-4.15 -70.4,1.77z"/>
  <path class="fil2" d="M1204.44 222.86c6.48,-3.31 -8.24,-3.56 8.3,-1.91 5.02,0.5 2.06,0.74 4.76,2.75 -4.2,6.83 -9.47,11.05 -13.06,-0.84zm-5.29 21.72c7.8,-4.08 0.63,1.51 4.69,-3.83l4.31 -6.48c8.69,5.53 4.26,8.61 15.19,9.37l-5.91 -9.8c14.8,-17.18 -0.46,-18.38 -17.25,-18.3l-1.02 29.04z"/>
  <path class="fil2" d="M754.22 243.75l1.31 -17.06c0.52,0.56 1.62,0.45 2,1.74l7.44 7.18 9.29 -9.32 0.6 17.59c6.78,-5.87 5.29,-16.11 3.32,-28.12 -10.11,3.15 -5.46,4.15 -13.2,11.33 -6.76,-6.56 -4.17,-8.09 -13.41,-11.41 -1.7,10.21 -3.45,21.93 2.67,28.08z"/>
  <path class="fil2" d="M824.27 222.86c2.98,-1.94 -2.37,-2.3 7.4,-2.32 8.18,-0.01 -0.39,-0.71 5.18,1.88 -3.11,7.36 -9.8,13.54 -12.59,0.44zm-5.02 20.9c9.84,-3.43 -0.04,-5.7 11.21,-9.73 8.91,9.58 -1.6,8.24 11.56,9.77 -7.28,-21.74 1.34,-6.87 -0.12,-20.58 -1.02,-9.56 -11.75,-7.7 -22,-7.02l-0.64 27.57z"/>
  <path class="fil2" d="M558.14 243.95l2.38 -18.03c6.59,6.62 10.44,14.85 19.72,18.42 0.3,-5.01 0.86,-11.42 0.72,-16.35 -0.4,-13.53 -1.77,-9.89 -4.01,-11.91 -2.65,5.98 -0.29,3.38 -1.37,6.9 -3.27,10.69 0.14,3.56 -4.71,9.2 -3.74,-8.91 -4.06,-12.85 -14.97,-16.44 -1.3,9.25 -2.99,21.49 2.25,28.21z"/>
  <path class="fil0" d="M600.29 244.08c5.72,-5.2 2.67,5.93 4.79,-7.69 0.28,-1.79 -0.34,-8.35 -0.44,-10.57l9.3 10.17 8.21 -10.82 2.34 18.6c6.19,-5.83 4.55,-16.88 3.04,-27.93 -9.28,2.9 -6.45,4.19 -12.98,11.67 -9.29,-7.46 -0.99,-8.41 -13.2,-11.6l-1.06 28.18z"/>
  <path class="fil2" d="M711.54 220.08l14.42 1.92 0.08 16.18 -14.55 0.58 0.05 -18.68zm-5.58 23.96c17.85,0.69 27.98,-1.97 25.68,-19.42 -7.92,-10.91 -9.43,-9.2 -24.89,-8.7l-0.79 28.13z"/>
  <path class="fil2" d="M1333.21 243.97c4.3,-3.35 5.31,6.76 4.67,-18.28 10.9,8.94 7.64,16.71 19.46,17.81l-0.26 -27.63c-4.62,3.9 -2.71,-6.21 -4.38,6.91 -0.3,2.33 0.13,8.03 0.18,10.72 -3.65,-3.12 -4.64,-4.37 -8.85,-9.56 -7.13,-8.79 -0.25,-7.63 -10.86,-7.62l0.03 27.66z"/>
  <path class="fil2" d="M995.87 222.86c6.51,-4.13 5.27,-3.86 13.27,-0.82 -1.1,3.05 -0.37,8.42 -7.89,7.78 -7.51,-0.64 -4.16,-1.66 -5.38,-6.95zm-4.42 20.77c5.92,-2.3 0.64,-0.4 4.34,-4.59 4.69,-5.33 -1.95,-2.3 6.64,-5.01 9.08,8.88 -0.69,7.38 11.86,9.92l-5.36 -10.35c16.38,-14.57 -0.24,-18.47 -16.98,-17.4l-0.5 27.43z"/>
  <path class="fil2" d="M1133.95 244.16c-0.4,-8.18 -4.42,-5.17 -13.78,-5.08 -3.94,-2.72 -3.81,4.97 -2.75,-5.48 3.44,-1.68 5.63,-0.03 14.45,-5.71l-14.76 -1.17c-0.99,-12.48 -0.53,-2.48 2.3,-6.65 1.05,0.03 7.62,0.36 8.31,0.17 7.38,-2.15 2.86,1.35 5.29,-4.77l-16.29 -0.13 -4.53 1.5 -0.12 27.06 21.88 0.26z"/>
  <path class="fil2" d="M431.43 244.45c11.52,-6.13 -0.66,-1.3 9.02,-12.44 12.32,8.88 1.16,9.1 15.56,12.42 -3.55,-7.87 -6.38,-9.15 -10.87,-16.2l9.59 -11.96c-10.64,0.64 -11.95,5.22 -15.72,11.23l-3.67 -11.65c-6.68,5.7 -4.7,13.51 -3.9,28.6z"/>
  <path class="fil2" d="M536.78 222.78c2.11,11.43 4.67,8.7 -5.47,9.45l5.47 -9.45zm-15.9 20.82c10.78,-2.54 4.75,-5.34 13.46,-6.21 10.71,-1.07 4.12,2.99 15.56,6.98 -1.67,-5.96 -3.54,-8.94 -6.01,-15.28 -4.61,-11.83 -2.17,-10.84 -10.84,-13.69l-12.18 28.21z"/>
  <path class="fil2" d="M488.96 236.29c-8.85,5.89 -8.34,-0.53 -15.42,2.69 5.75,9 12.05,5.97 20.03,2.63 0.88,-12.85 2.89,-7.49 -9.3,-14.83 -4.38,-2.64 -2.82,-1.74 -5.31,-3.92l13.47 -2.69c-5.91,-9.51 -16.5,-4.21 -18.17,0.57 -3.75,10.67 0.08,6.7 9.71,11.95 5.53,3.02 1.83,0.73 5,3.6z"/>
  <path class="fil2" d="M678.49 244.33c9.85,0.02 15.28,1.62 21.49,-2.67 -6.19,-3.77 0.67,-0.2 -7.59,-2.29 -0.77,-0.19 -1.62,-0.19 -2.4,-0.41 -0.77,-0.22 -1.62,-0.42 -2.32,-0.64l-4.24 -2.04c4.29,-5.59 3.32,-1.62 10.9,-5.84l3.98 -3.15c-13.01,-0.06 -9.66,2.74 -15,-4.45l4.32 -1.92c7.69,-2.02 7.18,-0.05 12.02,-3.46l-20.23 -2.01 -0.94 28.85z"/>
  <path class="fil2" d="M901.35 223.21c6.38,10.86 6.56,6.59 -2.09,9.23 -2.97,-4.69 -1.89,-4.54 2.09,-9.23zm-15.44 20.45c5.4,-1.35 3.21,-1.22 6.63,-3.23 13.43,-7.9 11.38,0.53 22.2,3.51 -2.53,-9.59 -6.61,-24.67 -16.02,-28.47l-12.81 28.19z"/>
  <path class="fil2" d="M799.37 223.4l2.97 9.23 -7.31 -0.46 4.34 -8.76zm-14.57 20.28c5.89,-1.32 10.17,-8.53 17.76,-6.19 7.9,5.35 1.13,3.73 10.5,6.61l-12.15 -28.84c-8.27,3.96 -13.7,18.98 -16.11,28.42z"/>
  <path class="fil2" d="M1046.06 225.54c4.11,4.83 -1.79,0.63 6.5,5.25l9.19 5.49c-10.5,6.3 -8.14,-1.53 -16.09,3.27 7.54,7.37 12.19,5.62 20.15,2.41 1,-9.71 3.89,-6.85 -3.47,-12.73 -0.01,-0.01 -4.75,-2.08 -5.71,-2.64 -4.24,-2.44 -3.04,-1.87 -5.3,-3.73 0.69,-0.42 1.78,-1.84 2.16,-1.12 0.36,0.69 1.66,-0.78 2.15,-0.87 10.9,-2.04 1.88,2.22 9.22,-0.7 -1.43,-1.85 -1.39,-5.31 -9.49,-4.7 -6.97,0.52 -8.35,3.11 -9.31,10.07z"/>
  <path class="fil0" d="M1242.91 222.83c4.52,11.08 5.85,7.01 -2.54,9.79 -1.19,-2.1 -3.56,3.75 -0.92,-5.36 1.1,-3.79 1.94,-2.68 3.46,-4.43zm-16.04 21.06c12.03,-3.55 3.76,-5.99 13.75,-6.75 11.25,-0.85 3.96,3.42 15.18,6.85 -2.36,-9.52 -6.4,-24.88 -15.98,-28.59l-12.95 28.5z"/>
  <path class="fil2" d="M656.29 230.37c-3.4,6.17 -5.6,7 -8.71,13.39 6.8,-0.58 4.45,-0.25 11.04,-6.95 0.35,-0.35 1.02,-1.08 1.59,-1.55 8.8,9.75 0.14,8.15 12.35,8.41l-8.5 -13.28c2.77,-6.1 4.52,-7.25 7.48,-14.77 -7.83,1.67 -0.95,-1.44 -5.69,2.04 -0.55,0.41 -2.41,2.25 -2.92,2.74 -0.41,0.4 -1.05,1.3 -1.38,1.65 -0.33,0.36 -0.86,1.19 -1.35,1.73l-3.11 -3.06c-6.42,-5.56 -2.09,-3.97 -8.98,-4.48 3.04,4.96 5.99,8.14 8.18,14.13z"/>
  <path class="fil2" d="M971.65 223.45c4.27,10.26 5.38,8.21 -4.92,8.79l4.92 -8.79zm-14.58 19.9c12.34,-1.47 0.22,-4.29 12.41,-5.98 11.09,-1.54 5.49,2.94 15.85,6.84l-12.52 -28.88c-8.04,4.04 -13.06,18.86 -15.74,28.03z"/>
  <path class="fil0" d="M379.73 230.92c-6.06,4.03 -3.52,3.3 -8.66,0 1.5,-8.63 1.4,-5.02 5.5,-8.68l3.16 8.68zm-18.22 13.27c9.69,-4.56 4.14,-7.32 13.97,-7.23 12.21,0.11 2.06,2.31 14,7.24 -2.83,-9.92 -6.68,-22.69 -13.99,-28.38 -7.33,5.56 -11.31,18.54 -13.98,28.37z"/>
  <path class="fil0" d="M1174.37 244.32c8.99,0.06 13.31,1.72 19.11,-2.66 -9.07,-6.06 -7.72,1.71 -16.36,-5.37 3.98,-9.16 5.67,0.21 14.25,-8.26 -11.61,-1.22 -11.13,2.3 -14.35,-5.17 6.15,-4.75 5.59,-2.98 14.82,-2.54 -4.23,-4.39 0.05,-2.14 -7.78,-3.59 -0.07,-0.01 -8.91,-0.27 -10.49,-0.39l0.79 27.99z"/>
  <path class="fil2" d="M1090.95 236.27c9.94,-10.8 -9.1,4.39 9.46,-5.34 0.76,-0.4 1.67,-0.97 2.31,-1.32 0.66,-0.35 1.6,-0.9 2.33,-1.46 -14.08,-0.01 -11.32,3.1 -14.97,-5.3 3.19,-2.43 -0.38,-1.98 5.42,-2.98 3.77,-0.65 7.74,-0.11 11.56,0.05l-0.06 -4.26 -20.74 0.45 -0.31 27.1c6.57,-1.66 2.81,4.59 5,-6.95z"/>
  <path class="fil2" d="M1265.08 222.86c-0.01,9.37 -1.36,14.39 2.15,21.27 4.86,-6.65 3.03,-7.6 3.07,-21.27 9.4,-5.74 4.72,1.51 8.32,-7.32l-22.2 -0c1.69,4.49 -3.02,1.27 8.66,7.32z"/>
  <path class="fil2" d="M855.67 222.86c0.01,16.98 -2.02,14.65 3.3,21.04 3.36,-6.64 2.04,-12.12 2.05,-21.04 8.06,-4.88 6.08,-1.31 8.19,-6.95l-21.44 -0.12c3.02,7.62 -1.13,1.59 7.89,7.06z"/>
  <path class="fil2" d="M347.35 222.86l0.4 20.98c4.48,-3.9 4.53,8.41 4.58,-20.98 9.25,-6.69 5.62,1.59 8.45,-6.62l-22.41 -0.61c2.14,6.01 -3.14,0.24 4.69,5.24l4.29 1.99z"/>
  <path class="fil2" d="M507.23 222.86l0.24 15.87c0.95,4.91 0.81,2.81 2.32,5.21 3.62,-6.65 2.22,-11.73 2.2,-21.07 0.64,-0.38 1.74,-1.5 2.01,-0.95 0.01,0.02 4.29,-0.2 6.44,-6.15l-21.69 0.04c1.99,4.88 -4.59,-0.44 8.48,7.07z"/>
  <path class="fil2" d="M921.26 243.93c8.49,0.44 13.68,2.07 19.53,-2.27l-14.42 -2.89c-0.04,-9.29 1.82,-16.83 -2.93,-22.86 -4.21,6.19 -2.59,19.02 -2.18,28.02z"/>
  <path class="fil0" d="M405.6 235.53c-6.15,4.83 -10.3,3.17 -11.41,3.44 1.96,3.68 -4.7,3.55 5.68,5.23 15.16,2.46 11.78,-20.09 10.44,-28.31 -4.44,4.18 -2.54,-2.98 -4.08,9.64 -0.49,4.04 0.27,5.7 -0.63,10z"/>
  <path class="fil2" d="M1028.29 222.04c-0.35,10.46 -2.01,15.64 2.58,21.78l2.01 -20.96c0.49,-0.39 1.64,-1.55 1.93,-0.98 0.02,0.03 4.43,-0.26 6.61,-6.11l-22.15 0.4 9.02 5.86z"/>
  <path class="fil1" d="M421.16 244.33c1.44,-2.44 1.59,-0.83 2.37,-5.57 0.25,-1.53 0.46,-6.19 0.48,-7.82 0.14,-8.41 0.74,-9.97 -2.85,-15.21 -5.67,7.19 -4.08,22.7 0,28.6z"/>
  <path class="fil1" d="M638.72 244.32c3.34,-6.31 3.99,-22.14 0,-28.6 -3.83,4.82 -4.47,11.07 -3.11,20.67 1.89,13.36 0.11,3.6 3.11,7.93z"/>
  <path class="fil2" d="M464.13 244.03c3.08,-6.09 3.68,-21.79 0,-28.11 -3.88,4.69 -4.43,11.09 -3.09,20.46 1.94,13.51 -0.08,3.28 3.09,7.65z"/>
  <path class="fil4" d="M1174.37 244.32l-0.79 -27.99c1.57,0.12 10.42,0.38 10.49,0.39 7.83,1.45 3.55,-0.8 7.78,3.59l2.56 -4.97 -22.88 -0.88 -0.23 21.82c-0.24,14.97 -0.58,3.25 3.08,8.04z"/>
  <path class="fil2" d="M877.77 243.92c4.59,-6.57 4.48,-22.17 0,-27.93 -2.99,6.3 -2.57,21.74 0,27.93z"/>
  <path class="fil3" d="M98.77 136.69c4.23,7.53 0.82,10.03 10.01,5.51 5.78,-12.2 -9.36,-6.26 -10.01,-5.51z"/>
  <path class="fil5" d="M1120.16 239.08l-0.74 -4.91c12.95,-0.59 9.5,2.35 14.05,-5.94l-14.76 -2.89 0.7 -5.26c-2.83,4.17 -3.29,-5.83 -2.3,6.65l14.76 1.17c-8.82,5.68 -11.01,4.02 -14.45,5.71 -1.06,10.45 -1.18,2.76 2.75,5.48z"/>
  <path class="fil3" d="M84.04 122.03c2.5,5.8 1.28,4.58 6.74,7.45 1.38,-1.81 1.89,-0.47 4.6,-6.78 -0.05,-0.03 -5.15,-2.43 -5.19,-2.43 -0.42,-0.03 -3.08,0.04 -6.15,1.76z"/>
  <path class="fil1" d="M46.13 128.28c10.14,-1.4 4.36,2.26 8.59,-5.68l-6.12 -4.78c-2.56,5.13 -3.43,3.46 -2.47,10.46z"/>
  <path class="fil1" d="M64.11 118.44c5.6,6.36 1.11,5 9.17,2.35 -2.7,-6.93 3.06,-11.84 -9.17,-2.35z"/>
  <path class="fil1" d="M29.01 163.62c8.09,-4.51 4.23,-4.98 0.42,-9.53 -3.24,3.15 -3.53,-1.52 -3.16,4.6 0.45,7.54 -1.56,0.49 2.74,4.93z"/>
  <path class="fil2" d="M30.37 138.32c5.36,5.26 1.69,5.82 8.99,1.4 -4.1,-6.87 0.27,-4.14 -4.6,-4.34 -1.61,-0.06 -4.38,2.91 -4.39,2.93z"/>
  <path class="fil2" d="M109.59 164.02c3.93,-4.6 4.57,4.81 2.48,-3.57 -1.86,-7.47 2.57,0.56 -3.68,-5.47 -4.9,11.48 -0.21,7.19 1.2,9.04z"/>
 </g>
</svg>
